<svg width="150" height="40" viewBox="0 0 150 40" fill="none" xmlns="http://www.w3.org/2000/svg">
  <rect width="40" height="40" rx="5" fill="#FF4B4B"/>
  <path d="M15 10L25 10L25 12L20 12L20 30L15 30L15 10Z" fill="white"/>
  <path d="M25 20L35 10L35 30L30 30L30 18L25 23L25 20Z" fill="white"/>
  <path d="M5 10L10 10L15 20L10 30L5 30L10 20L5 10Z" fill="white"/>
  <path d="M50 15H53L58 30H55L54 27H49L48 30H45L50 15ZM53 24L51.5 19.5L50 24H53Z" fill="white"/>
  <path d="M60 15H67C68.3333 15 69.3333 15.3333 70 16C70.6667 16.6667 71 17.5 71 18.5C71 19.5 70.6667 20.3333 70 21C69.3333 21.6667 68.3333 22 67 22H63V30H60V15ZM66.5 19.5C66.5 19.1667 66.3333 19 66 19H63V21H66C66.3333 21 66.5 20.8333 66.5 20.5V19.5Z" fill="white"/>
  <path d="M73 15H76V27H82V30H73V15Z" fill="white"/>
  <path d="M88 15H94C95.3333 15 96.3333 15.3333 97 16C97.6667 16.6667 98 17.5 98 18.5C98 19.1667 97.8333 19.75 97.5 20.25C97.1667 20.75 96.8333 21.0833 96.5 21.25C97 21.4167 97.4167 21.8333 97.75 22.5C98.0833 23.1667 98.25 23.8333 98.25 24.5V25.5C98.25 26.1667 98.3333 26.6667 98.5 27C98.6667 27.3333 99 27.5 99.5 27.5V30H96.25C95.75 30 95.4167 29.5833 95.25 28.75C95.0833 27.9167 95 27 95 26V25C95 24.5 94.8333 24.0833 94.5 23.75C94.1667 23.4167 93.8333 23.25 93.5 23.25H91V30H88V15ZM93.5 19.5C93.5 19.1667 93.3333 19 93 19H91V20.5H93C93.3333 20.5 93.5 20.3333 93.5 20V19.5Z" fill="white"/>
  <path d="M103 15H110.5C111.833 15 112.833 15.3333 113.5 16C114.167 16.6667 114.5 17.5 114.5 18.5V21C114.5 22 114.167 22.8333 113.5 23.5C112.833 24.1667 111.833 24.5 110.5 24.5H106V30H103V15ZM110 19.5C110 19.1667 109.833 19 109.5 19H106V21H109.5C109.833 21 110 20.8333 110 20.5V19.5Z" fill="white"/>
  <path d="M116 15H119V30H116V15Z" fill="white"/>
  <path d="M130 15H133V30H130.5L126 20.5V30H123V15H125.5L130 24.5V15Z" fill="white"/>
  <path d="M139 15H146.5C147.833 15 148.833 15.3333 149.5 16C150.167 16.6667 150.5 17.5 150.5 18.5V26.5C150.5 27.5 150.167 28.3333 149.5 29C148.833 29.6667 147.833 30 146.5 30H139V15ZM146 19C146 18.6667 145.833 18.5 145.5 18.5H142.5V26.5H145.5C145.833 26.5 146 26.3333 146 26V19Z" fill="white"/>
</svg>