<?xml version="1.0" encoding="UTF-8"?>
<svg width="1200" height="800" viewBox="0 0 1200 800" xmlns="http://www.w3.org/2000/svg">
  <!-- Dark gradient background -->
  <defs>
    <linearGradient id="bg-gradient" x1="0%" y1="0%" x2="100%" y2="100%">
      <stop offset="0%" stop-color="#0A0E1A" />
      <stop offset="100%" stop-color="#151D32" />
    </linearGradient>
    
    <!-- Star filter -->
    <filter id="star-glow" x="-50%" y="-50%" width="200%" height="200%">
      <feGaussianBlur in="SourceGraphic" stdDeviation="2" result="blur" />
      <feColorMatrix in="blur" mode="matrix" values="1 0 0 0 0  0 1 0 0 0  0 0 1 0 0  0 0 0 18 -7" result="glow" />
      <feComposite in="SourceGraphic" in2="glow" operator="over" />
    </filter>
  </defs>
  
  <!-- Background -->
  <rect width="100%" height="100%" fill="url(#bg-gradient)" />
  
  <!-- Nebula effect -->
  <ellipse cx="300" cy="500" rx="400" ry="300" fill="rgba(15, 32, 81, 0.3)" />
  <ellipse cx="900" cy="200" rx="350" ry="250" fill="rgba(48, 25, 89, 0.3)" />
  
  <!-- Small stars - randomly positioned -->
  <g fill="white" filter="url(#star-glow)">
    <!-- First batch of stars -->
    <circle cx="50" cy="50" r="1.2" />
    <circle cx="120" cy="80" r="1" />
    <circle cx="200" cy="30" r="1.5" />
    <circle cx="280" cy="120" r="0.8" />
    <circle cx="350" cy="60" r="1.3" />
    <circle cx="400" cy="140" r="1" />
    <circle cx="480" cy="80" r="1.1" />
    <circle cx="550" cy="40" r="0.9" />
    <circle cx="620" cy="100" r="1.4" />
    <circle cx="700" cy="60" r="1.2" />
    <circle cx="750" cy="130" r="1" />
    <circle cx="820" cy="70" r="0.8" />
    <circle cx="900" cy="40" r="1.3" />
    <circle cx="950" cy="110" r="1.1" />
    <circle cx="1030" cy="60" r="0.9" />
    <circle cx="1100" cy="30" r="1.2" />
    <circle cx="1150" cy="90" r="1" />
    
    <!-- Second batch of stars -->
    <circle cx="80" cy="180" r="1.1" />
    <circle cx="150" cy="220" r="0.9" />
    <circle cx="230" cy="160" r="1.3" />
    <circle cx="300" cy="250" r="1" />
    <circle cx="380" cy="190" r="1.2" />
    <circle cx="430" cy="260" r="0.8" />
    <circle cx="510" cy="200" r="1" />
    <circle cx="580" cy="170" r="1.4" />
    <circle cx="650" cy="240" r="1.1" />
    <circle cx="730" cy="180" r="0.9" />
    <circle cx="780" cy="250" r="1.3" />
    <circle cx="850" cy="190" r="1" />
    <circle cx="930" cy="160" r="1.2" />
    <circle cx="980" cy="230" r="0.8" />
    <circle cx="1060" cy="170" r="1.1" />
    <circle cx="1130" cy="220" r="1.4" />
    
    <!-- More batches for complete coverage -->
    <circle cx="65" cy="320" r="1.3" />
    <circle cx="135" cy="380" r="1" />
    <circle cx="215" cy="340" r="0.8" />
    <circle cx="285" cy="400" r="1.2" />
    <circle cx="365" cy="350" r="1.1" />
    <circle cx="415" cy="410" r="0.9" />
    <circle cx="495" cy="360" r="1.4" />
    <circle cx="565" cy="330" r="1" />
    <circle cx="635" cy="390" r="1.3" />
    <circle cx="715" cy="340" r="0.8" />
    <circle cx="765" cy="400" r="1.2" />
    <circle cx="835" cy="350" r="1" />
    <circle cx="915" cy="320" r="1.1" />
    <circle cx="965" cy="380" r="0.9" />
    <circle cx="1045" cy="330" r="1.3" />
    <circle cx="1115" cy="390" r="1" />
    
    <!-- Bottom section -->
    <circle cx="50" cy="450" r="1" />
    <circle cx="120" cy="510" r="1.3" />
    <circle cx="200" cy="470" r="0.8" />
    <circle cx="280" cy="530" r="1.1" />
    <circle cx="350" cy="480" r="0.9" />
    <circle cx="400" cy="540" r="1.2" />
    <circle cx="480" cy="490" r="1" />
    <circle cx="550" cy="460" r="1.4" />
    <circle cx="620" cy="520" r="0.8" />
    <circle cx="700" cy="470" r="1.1" />
    <circle cx="750" cy="530" r="0.9" />
    <circle cx="820" cy="480" r="1.3" />
    <circle cx="900" cy="450" r="1" />
    <circle cx="950" cy="510" r="1.2" />
    <circle cx="1030" cy="470" r="0.8" />
    <circle cx="1100" cy="530" r="1.1" />
    <circle cx="1150" cy="490" r="1" />
    
    <!-- Final batch -->
    <circle cx="80" cy="580" r="1.2" />
    <circle cx="150" cy="640" r="1" />
    <circle cx="230" cy="600" r="1.3" />
    <circle cx="300" cy="660" r="0.8" />
    <circle cx="380" cy="610" r="1.1" />
    <circle cx="430" cy="670" r="0.9" />
    <circle cx="510" cy="620" r="1.4" />
    <circle cx="580" cy="590" r="1" />
    <circle cx="650" cy="650" r="1.2" />
    <circle cx="730" cy="600" r="0.8" />
    <circle cx="780" cy="660" r="1.3" />
    <circle cx="850" cy="610" r="1" />
    <circle cx="930" cy="580" r="1.1" />
    <circle cx="980" cy="640" r="0.9" />
    <circle cx="1060" cy="600" r="1.2" />
    <circle cx="1130" cy="650" r="1" />
    
    <!-- Bottom edge -->
    <circle cx="65" cy="700" r="1.1" />
    <circle cx="135" cy="760" r="0.9" />
    <circle cx="215" cy="720" r="1.3" />
    <circle cx="285" cy="770" r="1" />
    <circle cx="365" cy="730" r="1.2" />
    <circle cx="415" cy="780" r="0.8" />
    <circle cx="495" cy="740" r="1.1" />
    <circle cx="565" cy="710" r="0.9" />
    <circle cx="635" cy="770" r="1.4" />
    <circle cx="715" cy="730" r="1" />
    <circle cx="765" cy="780" r="1.3" />
    <circle cx="835" cy="740" r="0.8" />
    <circle cx="915" cy="710" r="1.2" />
    <circle cx="965" cy="760" r="1" />
    <circle cx="1045" cy="720" r="0.9" />
    <circle cx="1115" cy="780" r="1.1" />
  </g>
  
  <!-- Larger stars with glow -->
  <g fill="white" filter="url(#star-glow)">
    <circle cx="180" cy="120" r="2" />
    <circle cx="420" cy="80" r="2.2" />
    <circle cx="680" cy="150" r="1.8" />
    <circle cx="950" cy="70" r="2.1" />
    <circle cx="250" cy="320" r="2" />
    <circle cx="550" cy="280" r="1.9" />
    <circle cx="800" cy="350" r="2.2" />
    <circle cx="1050" cy="270" r="1.8" />
    <circle cx="150" cy="520" r="2.1" />
    <circle cx="450" cy="480" r="1.8" />
    <circle cx="750" cy="550" r="2" />
    <circle cx="1000" cy="500" r="1.9" />
    <circle cx="300" cy="680" r="2.2" />
    <circle cx="600" cy="650" r="1.8" />
    <circle cx="900" cy="700" r="2.1" />
    <circle cx="1100" cy="620" r="2" />
  </g>
  
  <!-- Subtle financial chart pattern -->
  <g stroke="rgba(0, 191, 255, 0.15)" stroke-width="1.5" fill="none">
    <polyline points="0,550 150,500 300,600 450,530 600,580 750,520 900,620 1050,500 1200,550" />
    <polyline points="0,600 150,650 300,580 450,630 600,550 750,630 900,580 1050,650 1200,620" />
  </g>
</svg>